<svg width="150" height="50" viewBox="0 0 150 50" fill="none" xmlns="http://www.w3.org/2000/svg">
<path d="M34.8011 12.0384H35.0831L35.0493 11.7584C34.7993 9.68371 33.886 8.03566 32.5035 6.90818C31.1232 5.78241 29.2918 5.18892 27.2244 5.18892C24.8586 5.18892 22.7578 6.02536 21.2491 7.60804C19.7407 9.19039 18.8438 11.4977 18.8438 14.4048C18.8438 17.3024 19.7252 19.6098 21.2262 21.1946C22.7278 22.7802 24.8291 23.6207 27.2244 23.6207C31.827 23.6207 34.6333 20.5503 35.0492 17.2142L35.0841 16.9345L34.8023 16.9332L31.0693 16.9162L30.8608 16.9152L30.8225 17.1202C30.6583 17.9971 30.2353 18.6761 29.6315 19.1377C29.026 19.6007 28.2232 19.8565 27.2841 19.8565C26.0257 19.8565 24.988 19.3921 24.2595 18.4977C23.5261 17.5971 23.0852 16.2343 23.0852 14.4048C23.0852 12.6271 23.5194 11.2633 24.2542 10.3491C24.9839 9.44114 26.0284 8.95312 27.3097 8.95312C28.2712 8.95312 29.0822 9.23057 29.6829 9.72039C30.2824 10.2092 30.6885 10.9223 30.8208 11.8246L30.8522 12.0384H31.0682H34.8011ZM58.3709 23.1321V23.3821H58.6209H69.7942H70.0442V23.1321V20.0895V19.8395H69.7942H62.5612V5.67756V5.42756H62.3112H58.6209H58.3709V5.67756V23.1321ZM84.2193 5.42756H83.9693V5.67756V16.6974C83.9693 17.6347 83.6419 18.427 83.0764 18.9846C82.511 19.5423 81.6905 19.8821 80.6739 19.8821C79.6617 19.8821 78.841 19.5424 78.2743 18.9845C77.7076 18.4266 77.3784 17.6343 77.3784 16.6974V5.67756V5.42756H77.1284H73.4381H73.1881V5.67756V17.0128C73.1881 18.9887 73.9355 20.6504 75.2575 21.8154C76.5766 22.9778 78.4485 23.6293 80.6739 23.6293C82.8909 23.6293 84.7626 22.9777 86.0837 21.8155C87.4076 20.6508 88.1597 18.9892 88.1597 17.0128V5.67756V5.42756H87.9097H84.2193ZM92.1459 5.42756H91.8959V5.67756V23.1321V23.3821H92.1459H95.7254H95.9754V23.1321V12.6665L100.155 23.1395L100.218 23.2969H100.387H102.825H102.994L103.057 23.1398L107.237 12.706V23.1321V23.3821H107.487H111.066H111.316V23.1321V5.67756V5.42756H111.066H106.515H106.347L106.284 5.58274L101.606 16.9952L96.9283 5.58274L96.8647 5.42756H96.697H92.1459ZM130.156 5.67756V5.42756H129.906H126.233H125.983V5.67756V16.0723L118.752 5.53609L118.677 5.42756H118.545H115.307H115.057V5.67756V23.1321V23.3821H115.307H118.997H119.247V23.1321V12.7627L126.513 23.2743L126.588 23.3821H126.719H129.906H130.156V23.1321V5.67756ZM54.9372 14.4048C54.9372 11.4972 54.0336 9.18974 52.5165 7.60751C50.9992 6.02512 48.8879 5.18892 46.5139 5.18892C44.1274 5.18892 42.0159 6.02495 40.5016 7.60771C38.9876 9.19017 38.0906 11.4977 38.0906 14.4048C38.0906 17.2994 38.9877 19.6067 40.5014 21.1922C42.0155 22.7779 44.1269 23.6207 46.5139 23.6207C48.8879 23.6207 50.9992 22.7845 52.5165 21.2021C54.0336 19.6199 54.9372 17.3125 54.9372 14.4048ZM50.6957 14.4048C50.6957 16.2181 50.2651 17.5814 49.5385 18.4862C48.8172 19.3843 47.7841 19.8565 46.5139 19.8565C45.2393 19.8565 44.2063 19.3842 43.4863 18.4863C42.7607 17.5816 42.3321 16.2184 42.3321 14.4048C42.3321 12.5913 42.7607 11.228 43.4863 10.3233C44.2063 9.42549 45.2393 8.95312 46.5139 8.95312C47.7841 8.95312 48.8172 9.42536 49.5385 10.3234C50.2651 11.2283 50.6957 12.5915 50.6957 14.4048Z" fill="#5C5C5C" stroke="black" stroke-width="0.5"/>
<mask id="path-2-outside-1" maskUnits="userSpaceOnUse" x="0.0375061" y="32.3793" width="149" height="13" fill="black">
<rect fill="white" x="0.0375061" y="32.3793" width="149" height="13"/>
<path d="M4.13126 42.1065C6.79035 42.1065 8.40114 40.4616 8.40114 37.7344C8.40114 35.0156 6.79035 33.3793 4.15682 33.3793H1.03751V42.1065H4.13126ZM2.88268 40.5256V34.9602H4.05881C5.69518 34.9602 6.56023 35.7955 6.56023 37.7344C6.56023 39.6818 5.69518 40.5256 4.05455 40.5256H2.88268Z"/>
<path d="M10.9339 42.1065H12.7492V38.4034C12.7492 37.598 13.3373 37.044 14.1384 37.044C14.3899 37.044 14.735 37.0866 14.9055 37.142V35.5312C14.7435 35.4929 14.5177 35.4673 14.3345 35.4673C13.6015 35.4673 13.0006 35.8935 12.762 36.7031H12.6938V35.5611H10.9339V42.1065Z"/>
<path d="M19.6967 42.2344C21.6825 42.2344 22.9183 40.875 22.9183 38.8594C22.9183 36.831 21.6825 35.4758 19.6967 35.4758C17.7109 35.4758 16.4751 36.831 16.4751 38.8594C16.4751 40.875 17.7109 42.2344 19.6967 42.2344ZM19.7053 40.8281C18.7891 40.8281 18.3203 39.9886 18.3203 38.8466C18.3203 37.7045 18.7891 36.8608 19.7053 36.8608C20.6044 36.8608 21.0732 37.7045 21.0732 38.8466C21.0732 39.9886 20.6044 40.8281 19.7053 40.8281Z"/>
<path d="M25.2987 44.5611H27.1141V41.0582H27.1695C27.4209 41.6037 27.9706 42.2131 29.0274 42.2131C30.5189 42.2131 31.6823 41.0327 31.6823 38.8423C31.6823 36.5923 30.4678 35.4758 29.0317 35.4758C27.9365 35.4758 27.4124 36.1278 27.1695 36.6605H27.0885V35.5611H25.2987V44.5611ZM27.0757 38.8338C27.0757 37.6662 27.57 36.9205 28.4521 36.9205C29.3513 36.9205 29.8286 37.7003 29.8286 38.8338C29.8286 39.9758 29.3428 40.7685 28.4521 40.7685C27.5786 40.7685 27.0757 40.0014 27.0757 38.8338Z"/>
<path d="M39.9363 42.2301C40.9036 42.2301 41.53 41.8082 41.8497 41.1989H41.9008V42.1065H43.6224V37.6918C43.6224 36.1321 42.3014 35.4758 40.844 35.4758C39.2758 35.4758 38.2445 36.2258 37.9931 37.419L39.6721 37.5554C39.7957 37.1207 40.1835 36.8011 40.8354 36.8011C41.4533 36.8011 41.807 37.1122 41.807 37.6491V37.6747C41.807 38.0966 41.3596 38.152 40.2218 38.2628C38.9264 38.3821 37.763 38.8168 37.763 40.2784C37.763 41.5739 38.6877 42.2301 39.9363 42.2301ZM40.4562 40.9773C39.8979 40.9773 39.4974 40.7173 39.4974 40.2187C39.4974 39.7074 39.9193 39.456 40.5585 39.3665C40.9548 39.3111 41.6025 39.2173 41.8198 39.0724V39.767C41.8198 40.4531 41.2531 40.9773 40.4562 40.9773Z"/>
<path d="M48.0461 38.3224C48.0504 37.4787 48.5532 36.9844 49.2862 36.9844C50.0149 36.9844 50.4538 37.4616 50.4495 38.2628V42.1065H52.2649V37.9389C52.2649 36.4133 51.37 35.4758 50.0063 35.4758C49.0347 35.4758 48.3316 35.9531 48.0376 36.7159H47.9609V35.5611H46.2308V42.1065H48.0461V38.3224Z"/>
<path d="M61.8559 42.2344C63.4752 42.2344 64.5661 41.446 64.8218 40.2315L63.1428 40.1207C62.9596 40.6193 62.4908 40.8793 61.8857 40.8793C60.9781 40.8793 60.4028 40.2784 60.4028 39.3026V39.2983H64.8602V38.7997C64.8602 36.5753 63.5136 35.4758 61.7835 35.4758C59.8573 35.4758 58.6087 36.8437 58.6087 38.8636C58.6087 40.9389 59.8403 42.2344 61.8559 42.2344ZM60.4028 38.1733C60.4411 37.4276 61.0079 36.831 61.8133 36.831C62.6016 36.831 63.1471 37.3935 63.1514 38.1733H60.4028Z"/>
<path d="M69.0602 33.3793H67.2448V42.1065H69.0602V33.3793Z"/>
<path d="M74.6973 42.2344C76.3166 42.2344 77.4075 41.446 77.6632 40.2315L75.9842 40.1207C75.801 40.6193 75.3322 40.8793 74.7271 40.8793C73.8195 40.8793 73.2442 40.2784 73.2442 39.3026V39.2983H77.7016V38.7997C77.7016 36.5753 76.355 35.4758 74.6249 35.4758C72.6987 35.4758 71.4501 36.8437 71.4501 38.8636C71.4501 40.9389 72.6817 42.2344 74.6973 42.2344ZM73.2442 38.1733C73.2825 37.4276 73.8493 36.831 74.6547 36.831C75.443 36.831 75.9885 37.3935 75.9928 38.1733H73.2442Z"/>
<path d="M80.0862 42.1065H81.9016V38.1776C81.9016 37.4531 82.3618 36.9716 82.9669 36.9716C83.5635 36.9716 83.9641 37.3807 83.9641 38.0241V42.1065H85.724V38.1094C85.724 37.4318 86.1118 36.9716 86.7723 36.9716C87.3518 36.9716 87.7865 37.3338 87.7865 38.0625V42.1065H89.5976V37.7045C89.5976 36.2855 88.7538 35.4758 87.5351 35.4758C86.5763 35.4758 85.8305 35.9659 85.5621 36.7159H85.4939C85.2851 35.9574 84.6161 35.4758 83.7169 35.4758C82.8348 35.4758 82.1658 35.9446 81.893 36.7159H81.8163V35.5611H80.0862V42.1065Z"/>
<path d="M95.2145 42.2344C96.8338 42.2344 97.9247 41.446 98.1804 40.2315L96.5014 40.1207C96.3182 40.6193 95.8494 40.8793 95.2443 40.8793C94.3367 40.8793 93.7614 40.2784 93.7614 39.3026V39.2983H98.2188V38.7997C98.2188 36.5753 96.8722 35.4758 95.1421 35.4758C93.2159 35.4758 91.9673 36.8437 91.9673 38.8636C91.9673 40.9389 93.1989 42.2344 95.2145 42.2344ZM93.7614 38.1733C93.7997 37.4276 94.3665 36.831 95.1719 36.831C95.9602 36.831 96.5057 37.3935 96.5099 38.1733H93.7614Z"/>
<path d="M102.419 38.3224C102.423 37.4787 102.926 36.9844 103.659 36.9844C104.388 36.9844 104.826 37.4616 104.822 38.2628V42.1065H106.638V37.9389C106.638 36.4133 105.743 35.4758 104.379 35.4758C103.407 35.4758 102.704 35.9531 102.41 36.7159H102.334V35.5611H100.603V42.1065H102.419V38.3224Z"/>
<path d="M112.75 35.5611H111.518V33.9929H109.703V35.5611H108.808V36.9247H109.703V40.3338C109.694 41.6165 110.568 42.2514 111.885 42.196C112.353 42.179 112.686 42.0852 112.869 42.0256L112.584 40.6747C112.494 40.6918 112.302 40.7344 112.132 40.7344C111.77 40.7344 111.518 40.598 111.518 40.0952V36.9247H112.75V35.5611Z"/>
<path d="M120.925 38.3224C120.929 37.4787 121.445 36.9844 122.186 36.9844C122.924 36.9844 123.358 37.4574 123.354 38.2628V42.1065H125.169V37.9389C125.174 36.4048 124.27 35.4758 122.907 35.4758C121.914 35.4758 121.249 35.9446 120.951 36.7159H120.874V33.3793H119.11V42.1065H120.925V38.3224Z"/>
<path d="M130.781 42.2344C132.4 42.2344 133.491 41.446 133.747 40.2315L132.068 40.1207C131.885 40.6193 131.416 40.8793 130.811 40.8793C129.903 40.8793 129.328 40.2784 129.328 39.3026V39.2983H133.785V38.7997C133.785 36.5753 132.439 35.4758 130.708 35.4758C128.782 35.4758 127.534 36.8437 127.534 38.8636C127.534 40.9389 128.765 42.2344 130.781 42.2344ZM129.328 38.1733C129.366 37.4276 129.933 36.831 130.738 36.831C131.527 36.831 132.072 37.3935 132.076 38.1733H129.328Z"/>
<path d="M136.17 42.1065H137.985V38.4034C137.985 37.598 138.573 37.044 139.374 37.044C139.626 37.044 139.971 37.0866 140.141 37.142V35.5312C139.98 35.4929 139.754 35.4673 139.57 35.4673C138.837 35.4673 138.237 35.8935 137.998 36.7031H137.93V35.5611H136.17V42.1065Z"/>
<path d="M144.958 42.2344C146.578 42.2344 147.668 41.446 147.924 40.2315L146.245 40.1207C146.062 40.6193 145.593 40.8793 144.988 40.8793C144.08 40.8793 143.505 40.2784 143.505 39.3026V39.2983H147.963V38.7997C147.963 36.5753 146.616 35.4758 144.886 35.4758C142.96 35.4758 141.711 36.8437 141.711 38.8636C141.711 40.9389 142.943 42.2344 144.958 42.2344ZM143.505 38.1733C143.543 37.4276 144.11 36.831 144.916 36.831C145.704 36.831 146.249 37.3935 146.254 38.1733H143.505Z"/>
</mask>
<path d="M4.13126 42.1065C6.79035 42.1065 8.40114 40.4616 8.40114 37.7344C8.40114 35.0156 6.79035 33.3793 4.15682 33.3793H1.03751V42.1065H4.13126ZM2.88268 40.5256V34.9602H4.05881C5.69518 34.9602 6.56023 35.7955 6.56023 37.7344C6.56023 39.6818 5.69518 40.5256 4.05455 40.5256H2.88268Z" fill="#707070"/>
<path d="M10.9339 42.1065H12.7492V38.4034C12.7492 37.598 13.3373 37.044 14.1384 37.044C14.3899 37.044 14.735 37.0866 14.9055 37.142V35.5312C14.7435 35.4929 14.5177 35.4673 14.3345 35.4673C13.6015 35.4673 13.0006 35.8935 12.762 36.7031H12.6938V35.5611H10.9339V42.1065Z" fill="#707070"/>
<path d="M19.6967 42.2344C21.6825 42.2344 22.9183 40.875 22.9183 38.8594C22.9183 36.831 21.6825 35.4758 19.6967 35.4758C17.7109 35.4758 16.4751 36.831 16.4751 38.8594C16.4751 40.875 17.7109 42.2344 19.6967 42.2344ZM19.7053 40.8281C18.7891 40.8281 18.3203 39.9886 18.3203 38.8466C18.3203 37.7045 18.7891 36.8608 19.7053 36.8608C20.6044 36.8608 21.0732 37.7045 21.0732 38.8466C21.0732 39.9886 20.6044 40.8281 19.7053 40.8281Z" fill="#707070"/>
<path d="M25.2987 44.5611H27.1141V41.0582H27.1695C27.4209 41.6037 27.9706 42.2131 29.0274 42.2131C30.5189 42.2131 31.6823 41.0327 31.6823 38.8423C31.6823 36.5923 30.4678 35.4758 29.0317 35.4758C27.9365 35.4758 27.4124 36.1278 27.1695 36.6605H27.0885V35.5611H25.2987V44.5611ZM27.0757 38.8338C27.0757 37.6662 27.57 36.9205 28.4521 36.9205C29.3513 36.9205 29.8286 37.7003 29.8286 38.8338C29.8286 39.9758 29.3428 40.7685 28.4521 40.7685C27.5786 40.7685 27.0757 40.0014 27.0757 38.8338Z" fill="#707070"/>
<path d="M39.9363 42.2301C40.9036 42.2301 41.53 41.8082 41.8497 41.1989H41.9008V42.1065H43.6224V37.6918C43.6224 36.1321 42.3014 35.4758 40.844 35.4758C39.2758 35.4758 38.2445 36.2258 37.9931 37.419L39.6721 37.5554C39.7957 37.1207 40.1835 36.8011 40.8354 36.8011C41.4533 36.8011 41.807 37.1122 41.807 37.6491V37.6747C41.807 38.0966 41.3596 38.152 40.2218 38.2628C38.9264 38.3821 37.763 38.8168 37.763 40.2784C37.763 41.5739 38.6877 42.2301 39.9363 42.2301ZM40.4562 40.9773C39.8979 40.9773 39.4974 40.7173 39.4974 40.2187C39.4974 39.7074 39.9193 39.456 40.5585 39.3665C40.9548 39.3111 41.6025 39.2173 41.8198 39.0724V39.767C41.8198 40.4531 41.2531 40.9773 40.4562 40.9773Z" fill="#707070"/>
<path d="M48.0461 38.3224C48.0504 37.4787 48.5532 36.9844 49.2862 36.9844C50.0149 36.9844 50.4538 37.4616 50.4495 38.2628V42.1065H52.2649V37.9389C52.2649 36.4133 51.37 35.4758 50.0063 35.4758C49.0347 35.4758 48.3316 35.9531 48.0376 36.7159H47.9609V35.5611H46.2308V42.1065H48.0461V38.3224Z" fill="#707070"/>
<path d="M61.8559 42.2344C63.4752 42.2344 64.5661 41.446 64.8218 40.2315L63.1428 40.1207C62.9596 40.6193 62.4908 40.8793 61.8857 40.8793C60.9781 40.8793 60.4028 40.2784 60.4028 39.3026V39.2983H64.8602V38.7997C64.8602 36.5753 63.5136 35.4758 61.7835 35.4758C59.8573 35.4758 58.6087 36.8437 58.6087 38.8636C58.6087 40.9389 59.8403 42.2344 61.8559 42.2344ZM60.4028 38.1733C60.4411 37.4276 61.0079 36.831 61.8133 36.831C62.6016 36.831 63.1471 37.3935 63.1514 38.1733H60.4028Z" fill="#707070"/>
<path d="M69.0602 33.3793H67.2448V42.1065H69.0602V33.3793Z" fill="#707070"/>
<path d="M74.6973 42.2344C76.3166 42.2344 77.4075 41.446 77.6632 40.2315L75.9842 40.1207C75.801 40.6193 75.3322 40.8793 74.7271 40.8793C73.8195 40.8793 73.2442 40.2784 73.2442 39.3026V39.2983H77.7016V38.7997C77.7016 36.5753 76.355 35.4758 74.6249 35.4758C72.6987 35.4758 71.4501 36.8437 71.4501 38.8636C71.4501 40.9389 72.6817 42.2344 74.6973 42.2344ZM73.2442 38.1733C73.2825 37.4276 73.8493 36.831 74.6547 36.831C75.443 36.831 75.9885 37.3935 75.9928 38.1733H73.2442Z" fill="#707070"/>
<path d="M80.0862 42.1065H81.9016V38.1776C81.9016 37.4531 82.3618 36.9716 82.9669 36.9716C83.5635 36.9716 83.9641 37.3807 83.9641 38.0241V42.1065H85.724V38.1094C85.724 37.4318 86.1118 36.9716 86.7723 36.9716C87.3518 36.9716 87.7865 37.3338 87.7865 38.0625V42.1065H89.5976V37.7045C89.5976 36.2855 88.7538 35.4758 87.5351 35.4758C86.5763 35.4758 85.8305 35.9659 85.5621 36.7159H85.4939C85.2851 35.9574 84.6161 35.4758 83.7169 35.4758C82.8348 35.4758 82.1658 35.9446 81.893 36.7159H81.8163V35.5611H80.0862V42.1065Z" fill="#707070"/>
<path d="M95.2145 42.2344C96.8338 42.2344 97.9247 41.446 98.1804 40.2315L96.5014 40.1207C96.3182 40.6193 95.8494 40.8793 95.2443 40.8793C94.3367 40.8793 93.7614 40.2784 93.7614 39.3026V39.2983H98.2188V38.7997C98.2188 36.5753 96.8722 35.4758 95.1421 35.4758C93.2159 35.4758 91.9673 36.8437 91.9673 38.8636C91.9673 40.9389 93.1989 42.2344 95.2145 42.2344ZM93.7614 38.1733C93.7997 37.4276 94.3665 36.831 95.1719 36.831C95.9602 36.831 96.5057 37.3935 96.5099 38.1733H93.7614Z" fill="#707070"/>
<path d="M102.419 38.3224C102.423 37.4787 102.926 36.9844 103.659 36.9844C104.388 36.9844 104.826 37.4616 104.822 38.2628V42.1065H106.638V37.9389C106.638 36.4133 105.743 35.4758 104.379 35.4758C103.407 35.4758 102.704 35.9531 102.41 36.7159H102.334V35.5611H100.603V42.1065H102.419V38.3224Z" fill="#707070"/>
<path d="M112.75 35.5611H111.518V33.9929H109.703V35.5611H108.808V36.9247H109.703V40.3338C109.694 41.6165 110.568 42.2514 111.885 42.196C112.353 42.179 112.686 42.0852 112.869 42.0256L112.584 40.6747C112.494 40.6918 112.302 40.7344 112.132 40.7344C111.77 40.7344 111.518 40.598 111.518 40.0952V36.9247H112.75V35.5611Z" fill="#707070"/>
<path d="M120.925 38.3224C120.929 37.4787 121.445 36.9844 122.186 36.9844C122.924 36.9844 123.358 37.4574 123.354 38.2628V42.1065H125.169V37.9389C125.174 36.4048 124.27 35.4758 122.907 35.4758C121.914 35.4758 121.249 35.9446 120.951 36.7159H120.874V33.3793H119.11V42.1065H120.925V38.3224Z" fill="#707070"/>
<path d="M130.781 42.2344C132.4 42.2344 133.491 41.446 133.747 40.2315L132.068 40.1207C131.885 40.6193 131.416 40.8793 130.811 40.8793C129.903 40.8793 129.328 40.2784 129.328 39.3026V39.2983H133.785V38.7997C133.785 36.5753 132.439 35.4758 130.708 35.4758C128.782 35.4758 127.534 36.8437 127.534 38.8636C127.534 40.9389 128.765 42.2344 130.781 42.2344ZM129.328 38.1733C129.366 37.4276 129.933 36.831 130.738 36.831C131.527 36.831 132.072 37.3935 132.076 38.1733H129.328Z" fill="#707070"/>
<path d="M136.17 42.1065H137.985V38.4034C137.985 37.598 138.573 37.044 139.374 37.044C139.626 37.044 139.971 37.0866 140.141 37.142V35.5312C139.98 35.4929 139.754 35.4673 139.57 35.4673C138.837 35.4673 138.237 35.8935 137.998 36.7031H137.93V35.5611H136.17V42.1065Z" fill="#707070"/>
<path d="M144.958 42.2344C146.578 42.2344 147.668 41.446 147.924 40.2315L146.245 40.1207C146.062 40.6193 145.593 40.8793 144.988 40.8793C144.08 40.8793 143.505 40.2784 143.505 39.3026V39.2983H147.963V38.7997C147.963 36.5753 146.616 35.4758 144.886 35.4758C142.96 35.4758 141.711 36.8437 141.711 38.8636C141.711 40.9389 142.943 42.2344 144.958 42.2344ZM143.505 38.1733C143.543 37.4276 144.11 36.831 144.916 36.831C145.704 36.831 146.249 37.3935 146.254 38.1733H143.505Z" fill="#707070"/>
<path d="M4.13126 42.1065C6.79035 42.1065 8.40114 40.4616 8.40114 37.7344C8.40114 35.0156 6.79035 33.3793 4.15682 33.3793H1.03751V42.1065H4.13126ZM2.88268 40.5256V34.9602H4.05881C5.69518 34.9602 6.56023 35.7955 6.56023 37.7344C6.56023 39.6818 5.69518 40.5256 4.05455 40.5256H2.88268Z" stroke="black" stroke-width="0.2" mask="url(#path-2-outside-1)"/>
<path d="M10.9339 42.1065H12.7492V38.4034C12.7492 37.598 13.3373 37.044 14.1384 37.044C14.3899 37.044 14.735 37.0866 14.9055 37.142V35.5312C14.7435 35.4929 14.5177 35.4673 14.3345 35.4673C13.6015 35.4673 13.0006 35.8935 12.762 36.7031H12.6938V35.5611H10.9339V42.1065Z" stroke="black" stroke-width="0.2" mask="url(#path-2-outside-1)"/>
<path d="M19.6967 42.2344C21.6825 42.2344 22.9183 40.875 22.9183 38.8594C22.9183 36.831 21.6825 35.4758 19.6967 35.4758C17.7109 35.4758 16.4751 36.831 16.4751 38.8594C16.4751 40.875 17.7109 42.2344 19.6967 42.2344ZM19.7053 40.8281C18.7891 40.8281 18.3203 39.9886 18.3203 38.8466C18.3203 37.7045 18.7891 36.8608 19.7053 36.8608C20.6044 36.8608 21.0732 37.7045 21.0732 38.8466C21.0732 39.9886 20.6044 40.8281 19.7053 40.8281Z" stroke="black" stroke-width="0.2" mask="url(#path-2-outside-1)"/>
<path d="M25.2987 44.5611H27.1141V41.0582H27.1695C27.4209 41.6037 27.9706 42.2131 29.0274 42.2131C30.5189 42.2131 31.6823 41.0327 31.6823 38.8423C31.6823 36.5923 30.4678 35.4758 29.0317 35.4758C27.9365 35.4758 27.4124 36.1278 27.1695 36.6605H27.0885V35.5611H25.2987V44.5611ZM27.0757 38.8338C27.0757 37.6662 27.57 36.9205 28.4521 36.9205C29.3513 36.9205 29.8286 37.7003 29.8286 38.8338C29.8286 39.9758 29.3428 40.7685 28.4521 40.7685C27.5786 40.7685 27.0757 40.0014 27.0757 38.8338Z" stroke="black" stroke-width="0.2" mask="url(#path-2-outside-1)"/>
<path d="M39.9363 42.2301C40.9036 42.2301 41.53 41.8082 41.8497 41.1989H41.9008V42.1065H43.6224V37.6918C43.6224 36.1321 42.3014 35.4758 40.844 35.4758C39.2758 35.4758 38.2445 36.2258 37.9931 37.419L39.6721 37.5554C39.7957 37.1207 40.1835 36.8011 40.8354 36.8011C41.4533 36.8011 41.807 37.1122 41.807 37.6491V37.6747C41.807 38.0966 41.3596 38.152 40.2218 38.2628C38.9264 38.3821 37.763 38.8168 37.763 40.2784C37.763 41.5739 38.6877 42.2301 39.9363 42.2301ZM40.4562 40.9773C39.8979 40.9773 39.4974 40.7173 39.4974 40.2187C39.4974 39.7074 39.9193 39.456 40.5585 39.3665C40.9548 39.3111 41.6025 39.2173 41.8198 39.0724V39.767C41.8198 40.4531 41.2531 40.9773 40.4562 40.9773Z" stroke="black" stroke-width="0.2" mask="url(#path-2-outside-1)"/>
<path d="M48.0461 38.3224C48.0504 37.4787 48.5532 36.9844 49.2862 36.9844C50.0149 36.9844 50.4538 37.4616 50.4495 38.2628V42.1065H52.2649V37.9389C52.2649 36.4133 51.37 35.4758 50.0063 35.4758C49.0347 35.4758 48.3316 35.9531 48.0376 36.7159H47.9609V35.5611H46.2308V42.1065H48.0461V38.3224Z" stroke="black" stroke-width="0.2" mask="url(#path-2-outside-1)"/>
<path d="M61.8559 42.2344C63.4752 42.2344 64.5661 41.446 64.8218 40.2315L63.1428 40.1207C62.9596 40.6193 62.4908 40.8793 61.8857 40.8793C60.9781 40.8793 60.4028 40.2784 60.4028 39.3026V39.2983H64.8602V38.7997C64.8602 36.5753 63.5136 35.4758 61.7835 35.4758C59.8573 35.4758 58.6087 36.8437 58.6087 38.8636C58.6087 40.9389 59.8403 42.2344 61.8559 42.2344ZM60.4028 38.1733C60.4411 37.4276 61.0079 36.831 61.8133 36.831C62.6016 36.831 63.1471 37.3935 63.1514 38.1733H60.4028Z" stroke="black" stroke-width="0.2" mask="url(#path-2-outside-1)"/>
<path d="M69.0602 33.3793H67.2448V42.1065H69.0602V33.3793Z" stroke="black" stroke-width="0.2" mask="url(#path-2-outside-1)"/>
<path d="M74.6973 42.2344C76.3166 42.2344 77.4075 41.446 77.6632 40.2315L75.9842 40.1207C75.801 40.6193 75.3322 40.8793 74.7271 40.8793C73.8195 40.8793 73.2442 40.2784 73.2442 39.3026V39.2983H77.7016V38.7997C77.7016 36.5753 76.355 35.4758 74.6249 35.4758C72.6987 35.4758 71.4501 36.8437 71.4501 38.8636C71.4501 40.9389 72.6817 42.2344 74.6973 42.2344ZM73.2442 38.1733C73.2825 37.4276 73.8493 36.831 74.6547 36.831C75.443 36.831 75.9885 37.3935 75.9928 38.1733H73.2442Z" stroke="black" stroke-width="0.2" mask="url(#path-2-outside-1)"/>
<path d="M80.0862 42.1065H81.9016V38.1776C81.9016 37.4531 82.3618 36.9716 82.9669 36.9716C83.5635 36.9716 83.9641 37.3807 83.9641 38.0241V42.1065H85.724V38.1094C85.724 37.4318 86.1118 36.9716 86.7723 36.9716C87.3518 36.9716 87.7865 37.3338 87.7865 38.0625V42.1065H89.5976V37.7045C89.5976 36.2855 88.7538 35.4758 87.5351 35.4758C86.5763 35.4758 85.8305 35.9659 85.5621 36.7159H85.4939C85.2851 35.9574 84.6161 35.4758 83.7169 35.4758C82.8348 35.4758 82.1658 35.9446 81.893 36.7159H81.8163V35.5611H80.0862V42.1065Z" stroke="black" stroke-width="0.2" mask="url(#path-2-outside-1)"/>
<path d="M95.2145 42.2344C96.8338 42.2344 97.9247 41.446 98.1804 40.2315L96.5014 40.1207C96.3182 40.6193 95.8494 40.8793 95.2443 40.8793C94.3367 40.8793 93.7614 40.2784 93.7614 39.3026V39.2983H98.2188V38.7997C98.2188 36.5753 96.8722 35.4758 95.1421 35.4758C93.2159 35.4758 91.9673 36.8437 91.9673 38.8636C91.9673 40.9389 93.1989 42.2344 95.2145 42.2344ZM93.7614 38.1733C93.7997 37.4276 94.3665 36.831 95.1719 36.831C95.9602 36.831 96.5057 37.3935 96.5099 38.1733H93.7614Z" stroke="black" stroke-width="0.2" mask="url(#path-2-outside-1)"/>
<path d="M102.419 38.3224C102.423 37.4787 102.926 36.9844 103.659 36.9844C104.388 36.9844 104.826 37.4616 104.822 38.2628V42.1065H106.638V37.9389C106.638 36.4133 105.743 35.4758 104.379 35.4758C103.407 35.4758 102.704 35.9531 102.41 36.7159H102.334V35.5611H100.603V42.1065H102.419V38.3224Z" stroke="black" stroke-width="0.2" mask="url(#path-2-outside-1)"/>
<path d="M112.75 35.5611H111.518V33.9929H109.703V35.5611H108.808V36.9247H109.703V40.3338C109.694 41.6165 110.568 42.2514 111.885 42.196C112.353 42.179 112.686 42.0852 112.869 42.0256L112.584 40.6747C112.494 40.6918 112.302 40.7344 112.132 40.7344C111.77 40.7344 111.518 40.598 111.518 40.0952V36.9247H112.75V35.5611Z" stroke="black" stroke-width="0.2" mask="url(#path-2-outside-1)"/>
<path d="M120.925 38.3224C120.929 37.4787 121.445 36.9844 122.186 36.9844C122.924 36.9844 123.358 37.4574 123.354 38.2628V42.1065H125.169V37.9389C125.174 36.4048 124.27 35.4758 122.907 35.4758C121.914 35.4758 121.249 35.9446 120.951 36.7159H120.874V33.3793H119.11V42.1065H120.925V38.3224Z" stroke="black" stroke-width="0.2" mask="url(#path-2-outside-1)"/>
<path d="M130.781 42.2344C132.4 42.2344 133.491 41.446 133.747 40.2315L132.068 40.1207C131.885 40.6193 131.416 40.8793 130.811 40.8793C129.903 40.8793 129.328 40.2784 129.328 39.3026V39.2983H133.785V38.7997C133.785 36.5753 132.439 35.4758 130.708 35.4758C128.782 35.4758 127.534 36.8437 127.534 38.8636C127.534 40.9389 128.765 42.2344 130.781 42.2344ZM129.328 38.1733C129.366 37.4276 129.933 36.831 130.738 36.831C131.527 36.831 132.072 37.3935 132.076 38.1733H129.328Z" stroke="black" stroke-width="0.2" mask="url(#path-2-outside-1)"/>
<path d="M136.17 42.1065H137.985V38.4034C137.985 37.598 138.573 37.044 139.374 37.044C139.626 37.044 139.971 37.0866 140.141 37.142V35.5312C139.98 35.4929 139.754 35.4673 139.57 35.4673C138.837 35.4673 138.237 35.8935 137.998 36.7031H137.93V35.5611H136.17V42.1065Z" stroke="black" stroke-width="0.2" mask="url(#path-2-outside-1)"/>
<path d="M144.958 42.2344C146.578 42.2344 147.668 41.446 147.924 40.2315L146.245 40.1207C146.062 40.6193 145.593 40.8793 144.988 40.8793C144.08 40.8793 143.505 40.2784 143.505 39.3026V39.2983H147.963V38.7997C147.963 36.5753 146.616 35.4758 144.886 35.4758C142.96 35.4758 141.711 36.8437 141.711 38.8636C141.711 40.9389 142.943 42.2344 144.958 42.2344ZM143.505 38.1733C143.543 37.4276 144.11 36.831 144.916 36.831C145.704 36.831 146.249 37.3935 146.254 38.1733H143.505Z" stroke="black" stroke-width="0.2" mask="url(#path-2-outside-1)"/>
</svg>